<svg xmlns="http://www.w3.org/2000/svg" width="1029" height="1112.421" viewBox="0 0 1029 1112.421"><g transform="translate(-446 -1336)"><rect width="200" height="200" transform="translate(491 1336)" fill="#ebb424" opacity="0.498"/><rect width="200" height="200" rx="50" transform="translate(549.579 2307) rotate(-45)" fill="#d40e0d" opacity="0.498"/><text transform="translate(652 1430)" fill="rgba(0,0,0,0.83)" font-size="80" font-family="HelveticaNeue, Helvetica Neue"><tspan x="0" y="0">Who</tspan></text><text transform="translate(997 1351)" fill="rgba(0,0,0,0.83)" font-size="30" font-family="HelveticaNeue, Helvetica Neue"><tspan x="0" y="29">Graduate and undergraduate </tspan><tspan x="0" y="69">students interested in psychology, </tspan><tspan x="0" y="109">neuroscience, &amp; social science </tspan><tspan x="0" y="149">analysis techniques</tspan></text><circle cx="100" cy="100" r="100" transform="translate(591 1636)" fill="#e51670" opacity="0.498"/><text transform="translate(491 1719)" fill="rgba(0,0,0,0.83)" font-size="80" font-family="HelveticaNeue, Helvetica Neue"><tspan x="0" y="0">Where</tspan></text><text transform="translate(997 1651)" fill="rgba(0,0,0,0.83)" font-size="30" font-family="HelveticaNeue, Helvetica Neue"><tspan x="0" y="29">Sidney Smith Hall </tspan><tspan x="0" y="69">(100 St. George Street) </tspan></text><path d="M108.166,10.553,212,211.367H0Z" transform="translate(485 1902.633)" fill="#49c39e" opacity="0.498"/><text transform="translate(446 2001)" fill="rgba(0,0,0,0.83)" font-size="80" font-family="HelveticaNeue, Helvetica Neue"><tspan x="0" y="0">When</tspan></text><text transform="translate(585 2271)" fill="rgba(0,0,0,0.83)" font-size="80" font-family="HelveticaNeue, Helvetica Neue"><tspan x="0" y="0">Why</tspan></text><text transform="translate(997 1933)" fill="rgba(0,0,0,0.83)" font-size="30" font-family="HelveticaNeue, Helvetica Neue"><tspan x="0" y="29">Friday, May 3 - Saturday May 4</tspan><tspan x="0" y="69">(24 Hours Long)</tspan></text><text transform="translate(997 2203)" fill="rgba(0,0,0,0.83)" font-size="30" font-family="HelveticaNeue, Helvetica Neue"><tspan x="0" y="29">Develop and practice your coding</tspan><tspan x="0" y="69">skills in a research-oriented and</tspan><tspan x="0" y="109">innovative setting</tspan></text></g></svg>