<svg xmlns="http://www.w3.org/2000/svg" width="269.59" height="53.064" viewBox="0 0 269.59 53.064"><g transform="translate(-95.722 -115.945)"><g transform="translate(95.722 115.945)"><g transform="translate(24.47 0.754)"><path d="M294.207,143.526c-.112,0-.225,0-.34-.01-.966-.058-3.129-.209-5.868-.4-6.111-.424-14.48-1.01-17.258-1.108a2.054,2.054,0,0,1-1.968-1.968c-.369-2.111.707-6.028,2.749-9.98,1.06-2.054,3.9-6.982,7.374-8.371,3.754-1.5,9.69,1.365,13.993,4.548,3.693,2.73,7.548,6.725,7.3,9.748C299.8,140.609,297.472,143.526,294.207,143.526ZM281.179,122.7a4.73,4.73,0,0,0-1.758.3c-2.1.84-4.586,3.722-6.649,7.707-1.847,3.58-2.923,7.318-2.613,9.087.141.781.453.791.622.8h0c2.812.1,11.2.682,17.316,1.109,2.734.191,4.894.342,5.855.4.079,0,.157.007.235.007,2.476,0,4.262-2.418,4.582-6.244.163-1.952-2.6-5.445-6.728-8.487C288.054,124.419,283.974,122.7,281.179,122.7Z" transform="translate(-268.703 -121.279)" fill="#e51670"/></g><g transform="translate(49.943 14.27)"><path d="M456.033,237.965c-2.887,0-5.388-2.907-6.6-7.743a20.29,20.29,0,0,1-.444-7.886c.457-2.784,1.6-4.616,3.314-5.3l.262.658-.262-.658a2.949,2.949,0,0,1,3.285.771c2.152,2.031,3.13,6.507,3.452,8.346.639,3.635.6,7.214-.112,9.336-.622,1.869-1.645,2.364-2.392,2.449A4.233,4.233,0,0,1,456.033,237.965Zm-2.665-19.725a1.45,1.45,0,0,0-.545.115c-2.675,1.062-3.2,6.815-2.021,11.522.825,3.282,2.617,6.675,5.22,6.675a3.272,3.272,0,0,0,.349-.02c.614-.071,1-.849,1.211-1.491.638-1.915.662-5.234.061-8.647-.618-3.524-1.751-6.347-3.029-7.555A1.82,1.82,0,0,0,453.367,218.24Z" transform="translate(-448.78 -216.826)" fill="#49c39e"/></g><g transform="translate(29.808 34.138)"><path d="M317.857,371.666a12.34,12.34,0,0,1-3.592-.515,11.58,11.58,0,0,1-7.271-6.931h0a3.78,3.78,0,0,1-.252-3.35c.905-1.579,3.522-1.886,8.735-2.5.891-.1,1.814-.212,2.829-.338.678-.083,1.333-.171,1.966-.256,4.288-.566,7.386-.983,8.912.644.833.887,1.051,2.263.666,4.214l-.069.354c-.489,2.494-.914,4.653-3.228,6.129A17.152,17.152,0,0,1,317.857,371.666Zm-9.567-8.011a10.216,10.216,0,0,0,6.385,6.142c3.831,1.161,8.448-.148,11.116-1.857,1.806-1.156,2.14-2.86,2.6-5.218l.071-.355c.29-1.47.19-2.442-.31-2.971-1.03-1.1-4.119-.686-7.7-.209-.637.085-1.3.173-1.98.257-1.018.126-1.98.239-2.838.34-4.288.5-7.121.835-7.673,1.8-.225.39-.119,1.071.321,2.078Z" transform="translate(-306.438 -357.277)" fill="#d40e0d"/></g><g transform="translate(23.269 36.01)"><path d="M271.759,387.563a7.086,7.086,0,0,1-1.429-.16c-1.078-.224-1.4-1.365-1.8-2.809a15.747,15.747,0,0,0-1.784-4.4,8.691,8.691,0,0,0-3.87-3.244c-1.374-.707-2.8-1.436-2.65-3.5a2.557,2.557,0,0,1,1.642-2.067c2.1-1.062,6.069-1.18,7.577-.225h0c1.112.707,2.538,4.007,3.536,6.648a33.7,33.7,0,0,1,2.048,6.981,2.677,2.677,0,0,1-.982,2.058A3.534,3.534,0,0,1,271.759,387.563Zm-5.542-15.638a8.809,8.809,0,0,0-3.71.721c-.38.192-.839.505-.867.9-.078,1.089.487,1.424,1.884,2.142a10.151,10.151,0,0,1,4.422,3.75,17.178,17.178,0,0,1,1.948,4.771c.208.741.491,1.755.724,1.805a3.093,3.093,0,0,0,2.535-.27,1.265,1.265,0,0,0,.472-.953,34.106,34.106,0,0,0-1.956-6.483c-1.392-3.678-2.517-5.67-2.971-5.958h0A5.5,5.5,0,0,0,266.217,371.925Z" transform="translate(-260.217 -370.509)" fill="#80d2de"/></g><path d="M108.21,150.682c-5.392,0-9.949-.373-11.984-5.568-1.086-2.774-.655-9.6,3.709-16.074,3.951-5.866,12.112-12.9,28.551-13.093h0c1.962-.024,4.329.141,5.2,1.573a2.923,2.923,0,0,1-.245,2.989c-.5.928-1.075,2-1.681,3.135-7.288,13.676-14.894,27.027-20.717,27.027h-1.463C109.112,150.68,108.658,150.682,108.21,150.682ZM128.5,117.368c-15.826.187-23.632,6.883-27.393,12.468-4.034,5.988-4.513,12.352-3.566,14.768,1.85,4.722,6.114,4.7,12.024,4.668h1.47c1.584,0,4.552-1.613,9.69-9.294,3.609-5.394,7.18-12.093,9.787-16.983.605-1.132,1.178-2.212,1.685-3.145.266-.489.53-1.163.276-1.584-.371-.615-1.7-.914-3.961-.888Z" transform="translate(-95.722 -115.945)" fill="#3f0f3f"/><g transform="translate(15.618 17.808)"><path d="M214.495,264.526a9.49,9.49,0,0,1-4.951-1.273,6.988,6.988,0,0,1-3.2-4.3,9.329,9.329,0,0,1,1.9-7.7c2.043-2.811,5.452-5.247,9.857-7.047h0a27.349,27.349,0,0,1,14.853-2.078,20.3,20.3,0,0,1,10.215,4.818,18.013,18.013,0,0,1,4.535,6.083,8.733,8.733,0,0,1,.795,5.627,3.394,3.394,0,0,1-2.729,2.569c-3.491.659-13.41,1.617-23,2.546-2.372.229-4.74.457-7.014.682A11.815,11.815,0,0,1,214.495,264.526Zm4.153-19.008c-8.888,3.631-11.89,9.195-10.922,13.095.768,3.1,3.866,4.839,7.891,4.442,2.273-.225,4.643-.454,7.016-.683,9.561-.924,19.448-1.879,22.878-2.526a1.992,1.992,0,0,0,1.627-1.556c.645-2.334-1.013-6.815-4.907-10.275C238.739,244.91,231.031,240.46,218.648,245.519Z" transform="translate(-206.13 -241.834)" fill="#ebb424"/></g><path d="M596.13,188.48h9.11c5.036,0,6.988,3.2,6.988,6.479s-1.952,6.479-6.988,6.479h-4.668v7.243H596.13Zm4.442,9.506h3.452c2.065,0,3.9-.453,3.9-3.027s-1.839-3.027-3.9-3.027h-3.452Z" transform="translate(-525.343 -178.219)"/><path d="M718.349,235.35c.028,1.754,1.5,2.461,3.084,2.461,1.16,0,2.631-.453,2.631-1.867,0-1.217-1.669-1.641-4.555-2.263-2.32-.509-4.64-1.33-4.64-3.9,0-3.734,3.225-4.7,6.366-4.7,3.2,0,6.139,1.075,6.451,4.668h-3.819c-.113-1.556-1.3-1.98-2.744-1.98-.905,0-2.235.17-2.235,1.358,0,1.443,2.263,1.641,4.555,2.178,2.348.538,4.64,1.386,4.64,4.1,0,3.848-3.338,5.092-6.677,5.092-3.4,0-6.705-1.273-6.875-5.149Z" transform="translate(-626.994 -209.642)"/><path d="M817.842,244.346c-.877,2.348-2.263,3.31-5.036,3.31a23.929,23.929,0,0,1-2.461-.141V244.2a21.369,21.369,0,0,0,2.348.141,1.894,1.894,0,0,0,1.386-2.744L808.93,227.88h4.3l3.31,10.015h.057l3.2-10.015h4.159Z" transform="translate(-708.041 -212.046)"/><path d="M924.941,230.625a2.74,2.74,0,0,0-2.971-2.518c-2.575,0-3.423,2.6-3.423,4.753,0,2.094.82,4.612,3.338,4.612a3.092,3.092,0,0,0,3.2-2.971h3.876c-.509,3.876-3.2,6-7.045,6a7.1,7.1,0,0,1-7.384-7.5c0-4.555,2.716-7.922,7.469-7.922,3.452,0,6.62,1.811,6.875,5.545Z" transform="translate(-798.703 -209.642)"/><path d="M1029.53,188.48h4.017v7.61h.085a5.139,5.139,0,0,1,4.272-2.433c4.271,0,5.347,2.4,5.347,6.026v9h-4.019v-8.261c0-2.4-.707-3.593-2.573-3.593-2.178,0-3.112,1.217-3.112,4.187v7.667h-4.017Z" transform="translate(-897.435 -178.219)"/><path d="M1146.12,188.48h4.442v7.752h8.176V188.48h4.442v20.2h-4.442v-8.714h-8.176v8.714h-4.442Z" transform="translate(-997.532 -178.219)"/><path d="M1282.373,229.974c.226-3.763,3.593-4.894,6.875-4.894,2.914,0,6.422.651,6.422,4.159v7.61a7.492,7.492,0,0,0,.509,3.254H1292.1a5.969,5.969,0,0,1-.283-1.415,6.709,6.709,0,0,1-4.923,1.811c-2.773,0-4.979-1.386-4.979-4.385,0-3.31,2.49-4.1,4.979-4.442,2.461-.368,4.753-.283,4.753-1.924,0-1.726-1.188-1.98-2.6-1.98-1.528,0-2.518.622-2.659,2.207Zm9.28,2.971c-.679.594-2.094.622-3.338.849-1.245.255-2.377.679-2.377,2.15,0,1.5,1.16,1.867,2.461,1.867a2.985,2.985,0,0,0,3.254-3.367Z" transform="translate(-1114.122 -209.642)"/><path d="M1403.331,230.625a2.739,2.739,0,0,0-2.971-2.518c-2.575,0-3.423,2.6-3.423,4.753,0,2.094.82,4.612,3.338,4.612a3.092,3.092,0,0,0,3.2-2.971h3.876c-.509,3.876-3.2,6-7.045,6a7.1,7.1,0,0,1-7.384-7.5c0-4.555,2.716-7.922,7.469-7.922,3.452,0,6.62,1.811,6.875,5.545Z" transform="translate(-1209.421 -209.642)"/><path d="M1508.52,188.48h4.017v10.836l5.064-5.262h4.753l-5.517,5.375,6.139,9.251h-4.866l-4.017-6.535-1.556,1.5v5.036h-4.017Z" transform="translate(-1308.668 -178.219)"/><path d="M1636.124,209.666v1.075H1623.11c.226-3.65,3.112-5.658,5.969-7.554,2.829-1.9,5.658-3.706,5.658-6.988a4.526,4.526,0,0,0-4.81-4.385c-3.565,0-5.262,2.631-5.262,6h-1.075c.226-4.668,2.348-6.931,6.167-6.931,3.31,0,6.053,1.754,6.053,5.347,0,3.423-2.688,5.573-5.487,7.441s-5.658,3.593-5.856,6Z" transform="translate(-1407.048 -180.28)"/><path d="M1727.72,200.98c0-4.7,1.443-10.1,7.073-10.1s7.073,5.4,7.073,10.1-1.443,10.1-7.073,10.1S1727.72,205.676,1727.72,200.98Zm13.069,0c0-3.933-1.1-9.166-6-9.166s-6,5.234-6,9.166,1.1,9.166,6,9.166S1740.789,204.913,1740.789,200.98Z" transform="translate(-1496.86 -180.28)"/><path d="M1844.229,212.8h-1.075V195.374a8.3,8.3,0,0,1-5.234,2.49v-.934a7.437,7.437,0,0,0,5.347-3.65h.962Z" transform="translate(-1591.472 -182.34)"/><path d="M1908.05,205.931a4.822,4.822,0,0,0,4.894,4.215c5.375,0,6.11-6.45,6.11-9.93l-.056-.057a5.814,5.814,0,0,1-5.685,3.961,6.62,6.62,0,0,1,0-13.24c3,0,6.817,1.33,6.817,9.138,0,4.81-1.159,11.062-7.185,11.062-3.254,0-5.6-1.867-5.969-5.149Zm10.779-8.487a5.518,5.518,0,1,0-11.034,0,5.629,5.629,0,0,0,5.517,5.743A5.525,5.525,0,0,0,1918.829,197.444Z" transform="translate(-1650.539 -180.28)"/><text transform="translate(123.319 42.02)" font-size="9" font-family="Helvetica"><tspan x="0" y="0">University of </tspan><tspan y="0" letter-spacing="-0.11em">T</tspan><tspan y="0">o</tspan><tspan y="0" letter-spacing="-0.02em">r</tspan><tspan y="0">onto</tspan></text></g></g></svg>